<?xml version="1.0" standalone="no"?>
<!DOCTYPE svg PUBLIC "-//W3C//DTD SVG 20010904//EN"
 "http://www.w3.org/TR/2001/REC-SVG-20010904/DTD/svg10.dtd">
<svg version="1.0" xmlns="http://www.w3.org/2000/svg"
 width="310.000000pt" height="310.000000pt" viewBox="0 0 310.000000 310.000000"
 preserveAspectRatio="xMidYMid meet">
<metadata>
Created by potrace 1.11, written by Peter Selinger 2001-2013
</metadata>
<g transform="translate(0.000000,310.000000) scale(0.100000,-0.100000)"
fill="#000000" stroke="none">
<path d="M2050 2633 c-53 -23 -89 -51 -121 -96 -36 -49 -37 -90 -4 -122 39
-40 68 -33 129 30 58 60 90 69 145 41 79 -41 121 -133 100 -220 -25 -105 -112
-152 -319 -174 -114 -13 -340 -15 -357 -5 -7 6 -12 55 -15 146 l-3 139 -29 25
c-33 28 -67 25 -101 -8 -18 -17 -20 -35 -24 -155 l-3 -136 -57 5 c-151 16
-267 18 -386 8 -295 -25 -435 -91 -501 -233 -25 -54 -29 -75 -29 -148 0 -71 4
-94 26 -140 57 -118 151 -188 264 -198 52 -4 71 0 116 20 56 26 124 87 134
119 7 22 31 25 38 7 3 -7 6 -2 6 12 1 32 -22 66 -59 85 -47 24 -70 19 -114
-29 -51 -56 -85 -70 -135 -56 -87 23 -113 103 -75 230 7 25 7 25 -14 6 -44
-38 -40 11 5 64 34 41 81 64 178 86 67 16 121 19 337 19 141 0 259 -3 262 -6
4 -4 6 -259 6 -568 0 -531 -1 -564 -19 -599 -44 -86 -108 -126 -201 -126 -130
0 -230 95 -230 218 0 51 21 82 60 91 111 24 77 170 -35 149 -104 -19 -175
-114 -175 -234 0 -125 52 -227 168 -330 l56 -50 106 0 c77 0 123 5 163 19 140
46 237 160 258 303 5 35 9 297 9 584 l0 521 163 0 c336 1 548 65 627 190 39
61 49 97 60 213 l9 94 -34 47 c-50 67 -119 127 -178 155 -61 28 -152 31 -207
7z m195 -32 c43 -20 95 -61 77 -61 -6 0 -13 4 -16 9 -15 24 -95 51 -152 51
-94 0 -176 -51 -205 -129 -7 -17 -13 -21 -21 -13 -12 12 15 63 54 100 66 61
182 81 263 43z m103 -287 c6 -95 -44 -180 -128 -217 -38 -17 -77 -29 -100 -32
-8 -1 -22 -5 -30 -8 -55 -20 -396 -35 -469 -21 -65 13 -27 20 89 16 193 -7
422 24 511 69 46 23 85 69 100 118 12 39 9 131 -5 166 -6 15 -4 13 10 -5 12
-15 20 -47 22 -86z m-787 60 c12 -15 11 -16 -9 -10 -46 15 -52 -4 -52 -165 0
-128 -2 -149 -16 -149 -9 0 -12 5 -8 12 5 7 7 73 6 148 -1 104 2 140 14 157
17 27 46 30 65 7z m-131 -303 c28 -7 31 -10 17 -16 -9 -4 -35 -3 -56 2 -49 13
-404 8 -495 -6 -192 -30 -285 -80 -346 -186 -34 -60 -40 -194 -11 -261 20 -47
20 -48 1 -25 -11 13 -20 31 -20 42 0 10 -4 21 -10 24 -5 3 -10 37 -10 75 0
270 216 379 725 364 94 -3 186 -9 205 -13z m53 -1294 c-48 -133 -195 -203
-330 -158 -24 8 -43 18 -43 23 0 11 7 10 32 -3 35 -19 151 -13 195 10 63 32
124 107 138 169 3 18 7 281 7 585 0 303 3 557 7 562 3 6 7 -249 9 -565 2 -522
1 -579 -15 -623z m-498 833 c3 -6 -5 -10 -18 -10 -16 0 -34 -12 -51 -35 -15
-19 -40 -42 -56 -50 -32 -17 -130 -21 -130 -5 0 6 -6 10 -14 10 -7 0 -19 7
-26 15 -11 14 -9 14 16 0 37 -19 107 -19 143 -1 15 8 40 31 55 50 27 36 67 48
81 26z m105 -544 c0 -1 -13 -1 -30 2 -41 6 -110 -36 -137 -85 -35 -64 -38
-128 -8 -243 l6 -25 -14 25 c-27 47 -40 137 -27 189 22 88 69 138 140 151 29
5 70 -3 70 -14z m-150 -366 c0 -5 -2 -10 -4 -10 -3 0 -8 5 -11 10 -3 6 -1 10
4 10 6 0 11 -4 11 -10z m155 -48 c-3 -3 -11 0 -18 7 -9 10 -8 11 6 5 10 -3 15
-9 12 -12z"/>
</g>
</svg>
