<?xml version="1.0" standalone="no"?>
<!DOCTYPE svg PUBLIC "-//W3C//DTD SVG 20010904//EN"
 "http://www.w3.org/TR/2001/REC-SVG-20010904/DTD/svg10.dtd">
<svg version="1.0" xmlns="http://www.w3.org/2000/svg"
 width="310.000000pt" height="310.000000pt" viewBox="0 0 310.000000 310.000000"
 preserveAspectRatio="xMidYMid meet">
<metadata>
Created by potrace 1.11, written by Peter Selinger 2001-2013
</metadata>
<g transform="translate(0.000000,310.000000) scale(0.100000,-0.100000)"
fill="#000000" stroke="none">
<path d="M2118 2649 c-16 -4 -28 -4 -28 -1 0 4 -5 0 -10 -8 -8 -12 -10 -12
-10 -1 0 11 -5 10 -20 -4 -11 -10 -20 -14 -20 -9 0 5 -7 0 -15 -10 -8 -11 -15
-17 -15 -13 0 4 -11 -3 -25 -15 -13 -11 -22 -26 -18 -31 3 -6 1 -7 -5 -3 -7 4
-17 -3 -24 -18 -6 -14 -16 -26 -21 -26 -6 0 -7 -3 -4 -6 3 -4 2 -15 -4 -25 -6
-13 -6 -19 0 -19 6 0 8 -6 5 -13 -8 -22 39 -54 76 -52 19 1 36 7 38 13 2 7 9
9 14 6 6 -4 8 -3 5 3 -3 5 5 20 18 34 39 39 50 46 68 43 9 -1 19 2 23 7 3 5
11 6 17 2 7 -4 19 -8 27 -10 8 -1 16 -7 18 -12 2 -6 9 -11 16 -11 6 0 18 -10
26 -21 8 -12 21 -27 27 -34 7 -8 14 -22 16 -32 1 -10 6 -23 10 -30 17 -28 -18
-163 -43 -163 -6 0 -9 -4 -6 -9 7 -11 -93 -61 -122 -61 -12 0 -22 -5 -22 -12
0 -6 -3 -8 -6 -5 -4 3 -15 2 -25 -4 -14 -7 -19 -6 -19 2 0 8 -4 8 -12 2 -7 -5
-28 -9 -45 -8 -18 0 -33 -2 -33 -5 0 -3 -25 -5 -55 -5 -30 0 -55 -4 -55 -10 0
-5 -4 -4 -9 4 -6 10 -13 10 -28 2 -11 -5 -23 -8 -25 -5 -8 8 -167 10 -162 2 3
-4 -2 -5 -10 -2 -9 3 -16 11 -17 18 0 6 -2 28 -4 48 -1 21 1 35 6 32 13 -8 11
10 -3 24 -9 9 -9 12 1 12 9 0 10 4 4 13 -5 6 -8 42 -8 80 1 37 -2 67 -7 67 -4
0 -8 7 -8 15 0 8 -7 15 -15 15 -7 0 -19 8 -24 18 -6 9 -11 12 -11 5 0 -6 -8
-10 -17 -9 -10 2 -29 -8 -43 -23 -25 -25 -26 -30 -25 -157 l1 -132 -81 4 c-44
2 -90 6 -102 9 -14 3 -23 1 -23 -6 0 -8 -4 -8 -12 -1 -7 5 -39 9 -70 7 -34 -1
-55 2 -51 8 3 5 -2 5 -13 -1 -11 -5 -44 -10 -74 -11 -30 -1 -64 -3 -75 -5 -11
-2 -26 2 -34 8 -11 8 -13 8 -8 0 4 -7 0 -14 -8 -18 -8 -3 -15 0 -15 6 0 7 -4
7 -13 -1 -8 -6 -23 -9 -36 -6 -14 2 -19 0 -15 -7 5 -7 0 -9 -14 -6 -12 4 -25
2 -28 -4 -3 -5 -12 -7 -20 -4 -8 3 -14 1 -14 -5 0 -6 -3 -8 -8 -6 -4 3 -25 -3
-46 -14 -22 -10 -41 -17 -44 -15 -2 3 -14 -5 -27 -16 -13 -11 -26 -20 -29 -19
-10 1 -52 -44 -49 -51 2 -5 1 -8 -4 -8 -4 0 -14 -14 -21 -30 -8 -17 -18 -27
-24 -24 -6 4 -8 2 -5 -3 4 -6 0 -29 -8 -52 -10 -31 -11 -41 -2 -41 8 0 7 -3
-2 -9 -9 -6 -12 -20 -9 -40 3 -18 0 -31 -6 -31 -8 0 -8 -3 -1 -8 6 -4 11 -22
10 -39 0 -18 3 -33 6 -33 3 0 11 -18 18 -40 8 -26 33 -61 77 -105 36 -35 68
-64 72 -63 4 1 17 -3 30 -10 12 -7 27 -10 32 -7 5 3 11 1 14 -4 3 -5 34 -7 68
-5 80 4 88 5 88 16 0 5 4 7 9 3 5 -3 16 1 24 9 8 8 17 12 21 9 3 -4 6 1 6 10
0 10 4 16 8 15 13 -4 72 64 65 75 -4 7 1 8 13 3 15 -6 17 -5 7 5 -7 7 -13 17
-13 22 0 5 7 1 16 -7 8 -9 21 -16 27 -16 7 0 6 4 -3 10 -8 5 -12 10 -8 10 3 0
3 12 -1 28 -4 15 -11 26 -15 24 -4 -2 -15 5 -24 15 -26 29 -86 24 -117 -9 -14
-15 -25 -32 -25 -38 0 -6 -4 -9 -9 -6 -5 3 -12 -1 -15 -10 -3 -8 -10 -12 -16
-9 -5 3 -10 1 -10 -5 0 -6 -5 -8 -10 -5 -6 3 -10 0 -10 -7 0 -8 -3 -9 -8 -3
-4 6 -18 11 -32 13 -34 4 -72 33 -89 68 -17 33 -23 94 -12 109 5 6 8 17 8 25
1 8 4 24 8 35 7 18 6 18 -17 -3 -28 -25 -49 -14 -23 11 11 12 12 17 2 20 -9 4
-9 6 1 6 7 1 10 6 7 11 -3 6 1 10 10 10 9 0 14 4 11 9 -6 10 73 66 81 57 3 -3
12 2 20 10 8 8 19 12 24 9 5 -4 9 0 9 7 0 9 3 9 10 -2 8 -12 10 -12 10 -1 0 8
3 11 6 8 4 -3 16 -2 27 4 15 9 18 8 12 -2 -6 -8 -4 -10 5 -4 15 9 48 15 105
19 22 1 45 5 51 8 5 4 16 3 24 -2 8 -5 22 -5 32 1 12 7 18 6 18 -1 0 -8 6 -8
20 0 15 8 20 8 20 -1 0 -8 4 -8 15 1 11 9 22 9 45 2 17 -7 30 -7 30 -2 0 6 9
6 23 1 14 -5 30 -5 40 0 12 7 17 6 17 -3 0 -9 3 -9 10 2 7 11 10 11 10 2 0 -9
12 -12 40 -9 22 2 43 0 46 -4 2 -4 11 -6 19 -2 8 3 16 1 16 -3 4 -29 3 -1094
-1 -1094 -3 0 -5 -14 -6 -30 -1 -17 -8 -38 -17 -48 -9 -9 -16 -21 -17 -27 -1
-5 -6 -9 -11 -7 -5 1 -8 -2 -7 -7 4 -14 -43 -51 -64 -51 -11 0 -16 -4 -13 -10
3 -6 -6 -11 -22 -12 -41 -2 -47 -3 -60 -11 -6 -4 -14 -3 -18 2 -3 5 -14 8 -25
6 -11 -2 -20 -1 -20 3 0 4 -9 8 -20 9 -23 2 -80 40 -80 54 0 5 -6 9 -13 9 -14
0 -50 74 -53 110 -1 14 -3 27 -4 30 -1 3 -1 10 0 15 1 6 4 18 6 29 5 28 23 44
57 52 17 3 37 13 45 20 18 19 28 84 13 84 -7 0 -10 3 -8 8 2 4 -3 14 -12 22
-19 17 -81 22 -81 6 0 -6 -5 -4 -10 4 -7 11 -10 11 -10 2 0 -7 -4 -10 -10 -7
-5 3 -10 1 -10 -5 0 -6 -4 -8 -10 -5 -5 3 -10 1 -10 -6 0 -7 -3 -10 -6 -7 -9
10 -85 -74 -80 -88 3 -7 -2 -15 -9 -18 -8 -3 -12 -14 -10 -26 2 -11 0 -20 -4
-20 -11 0 -8 -44 4 -52 6 -5 6 -8 -2 -8 -12 0 -12 -17 0 -37 5 -8 3 -13 -5
-13 -10 0 -10 -2 1 -9 8 -5 11 -16 8 -24 -3 -9 -2 -17 3 -19 4 -2 10 -12 12
-23 1 -11 9 -26 15 -33 7 -7 13 -20 13 -28 0 -8 5 -14 12 -14 6 0 9 -3 5 -6
-3 -4 9 -22 28 -40 19 -19 35 -38 35 -44 0 -5 7 -10 16 -10 8 0 12 -4 9 -10
-3 -5 1 -10 9 -10 9 0 16 -4 16 -9 0 -15 52 -43 87 -47 18 -2 33 1 33 5 0 4 7
8 15 8 8 0 12 -4 9 -8 -2 -4 8 -6 23 -4 16 2 28 4 28 5 0 7 36 6 41 -1 4 -6
11 -6 19 1 7 6 17 10 21 9 5 -1 12 0 17 1 4 1 10 3 15 4 22 4 122 60 122 68 0
5 5 6 10 3 6 -3 10 1 10 10 0 9 5 13 10 10 6 -3 10 0 10 7 0 8 9 20 20 28 11
8 20 20 20 28 0 7 5 10 12 6 6 -4 8 -3 4 4 -3 6 1 18 10 26 8 9 13 16 10 16
-3 0 2 16 10 35 8 19 11 35 8 35 -4 0 -2 6 3 13 6 7 9 223 9 565 -1 303 3 552
7 552 5 0 6 4 3 9 -4 5 2 7 11 5 10 -2 44 -5 75 -8 42 -3 56 -1 51 8 -4 6 2 4
12 -4 14 -11 19 -12 22 -2 3 6 10 9 15 5 19 -11 68 -11 68 1 0 6 5 4 10 -4 7
-11 10 -11 10 -2 0 10 5 10 20 2 11 -6 20 -7 20 -2 0 4 20 8 45 7 25 0 45 2
45 5 0 3 15 6 33 7 44 4 60 7 76 17 11 7 12 6 6 -5 -7 -11 -6 -12 6 -2 9 7 26
15 40 17 13 3 25 5 27 7 1 1 6 2 11 3 5 0 13 4 17 9 4 4 14 7 21 7 24 0 155
107 153 125 0 3 7 19 15 35 9 17 13 30 9 30 -4 0 -1 7 6 15 6 8 9 19 5 25 -3
5 -2 10 3 10 5 0 9 29 8 65 -2 40 2 65 8 65 6 0 4 5 -4 10 -10 6 -11 10 -2 10
6 0 12 9 12 20 0 11 -5 20 -11 20 -5 0 -8 4 -5 9 3 5 -1 12 -10 15 -8 3 -12
10 -9 16 3 5 1 10 -4 10 -6 0 -11 7 -11 15 0 9 -6 12 -17 8 -11 -4 -14 -3 -9
5 4 7 2 12 -3 12 -6 0 -11 6 -11 13 -1 14 -89 83 -102 80 -4 -2 -8 2 -8 7 0 6
-9 10 -19 10 -11 0 -23 5 -26 10 -4 6 -19 9 -33 8 -15 -1 -32 1 -37 4 -6 3
-22 2 -37 -3z"/>
</g>
</svg>
